<svg width="32" height="32" viewBox="0 0 512 512" xmlns="http://www.w3.org/2000/svg">
<title>MD1usd Logo - Eye of Horus</title>
<defs>
<linearGradient id="g" x1="15%" y1="10%" x2="85%" y2="95%">
<stop offset="0%" stop-color="#FFF4CC"/>
<stop offset="28%" stop-color="#FFD75E"/>
<stop offset="55%" stop-color="#D4AF37"/>
<stop offset="80%" stop-color="#A8791F"/>
<stop offset="100%" stop-color="#7A5610"/>
</linearGradient>
</defs>
<path d="M 353.0,208.0 L 350.0,222.0 L 346.0,221.0 L 344.0,225.0 L 342.0,224.0 L 343.0,227.0 L 340.0,229.0 L 332.0,224.0 L 339.0,230.0 L 335.0,234.0 L 336.0,235.0 L 332.0,236.0 L 330.0,239.0 L 319.0,240.0 L 331.0,241.0 L 336.0,246.0 L 334.0,249.0 L 338.0,249.0 L 341.0,253.0 L 335.0,261.0 L 341.0,255.0 L 342.0,259.0 L 346.0,256.0 L 347.0,261.0 L 349.0,259.0 L 351.0,262.0 L 351.0,273.0 L 354.0,263.0 L 356.0,265.0 L 359.0,258.0 L 362.0,260.0 L 363.0,257.0 L 369.0,264.0 L 363.0,254.0 L 369.0,253.0 L 366.0,252.0 L 366.0,250.0 L 369.0,250.0 L 370.0,248.0 L 373.0,249.0 L 369.0,246.0 L 374.0,242.0 L 387.0,241.0 L 374.0,239.0 L 368.0,234.0 L 369.0,230.0 L 373.0,227.0 L 368.0,229.0 L 365.0,227.0 L 366.0,225.0 L 363.0,227.0 L 363.0,219.0 L 359.0,223.0 L 357.0,219.0 L 355.0,220.0 L 353.0,216.0 Z M 452.0,223.0 L 440.0,224.0 L 433.0,222.0 L 403.0,202.0 L 384.0,194.0 L 369.0,191.0 L 340.0,191.0 L 317.0,196.0 L 295.0,204.0 L 231.0,237.0 L 197.0,251.0 L 172.0,259.0 L 114.0,272.0 L 78.0,277.0 L 38.0,280.0 L 59.0,284.0 L 86.0,285.0 L 166.0,278.0 L 225.0,278.0 L 255.0,282.0 L 309.0,293.0 L 347.0,295.0 L 323.0,317.0 L 286.0,342.0 L 241.0,363.0 L 209.0,372.0 L 182.0,373.0 L 168.0,368.0 L 160.0,358.0 L 159.0,346.0 L 161.0,341.0 L 168.0,334.0 L 178.0,330.0 L 189.0,330.0 L 196.0,334.0 L 197.0,339.0 L 194.0,344.0 L 182.0,350.0 L 188.0,352.0 L 199.0,352.0 L 204.0,350.0 L 211.0,344.0 L 214.0,338.0 L 215.0,331.0 L 211.0,321.0 L 207.0,317.0 L 198.0,313.0 L 181.0,313.0 L 161.0,320.0 L 147.0,333.0 L 142.0,342.0 L 142.0,365.0 L 148.0,376.0 L 153.0,381.0 L 166.0,388.0 L 181.0,391.0 L 201.0,390.0 L 223.0,386.0 L 250.0,377.0 L 276.0,365.0 L 325.0,334.0 L 372.0,292.0 L 373.0,294.0 L 365.0,318.0 L 360.0,350.0 L 358.0,376.0 L 359.0,390.0 L 367.0,372.0 L 381.0,349.0 L 390.0,337.0 L 406.0,321.0 L 393.0,316.0 L 388.0,307.0 L 389.0,292.0 L 394.0,279.0 L 422.0,251.0 L 433.0,236.0 L 442.0,236.0 L 445.0,234.0 Z M 319.0,212.0 L 309.0,225.0 L 306.0,236.0 L 306.0,250.0 L 311.0,263.0 L 325.0,279.0 L 324.0,280.0 L 301.0,277.0 L 227.0,257.0 L 254.0,244.0 L 299.0,218.0 L 315.0,211.0 Z M 313.0,247.0 L 313.0,229.0 L 317.0,219.0 L 327.0,209.0 L 340.0,205.0 L 366.0,204.0 L 381.0,207.0 L 404.0,217.0 L 424.0,231.0 L 404.0,253.0 L 387.0,266.0 L 368.0,275.0 L 351.0,279.0 L 337.0,277.0 L 325.0,269.0 L 318.0,260.0 Z M 456.0,165.0 L 429.0,165.0 L 376.0,157.0 L 337.0,157.0 L 308.0,161.0 L 285.0,167.0 L 247.0,181.0 L 156.0,228.0 L 127.0,240.0 L 74.0,255.0 L 33.0,261.0 L 55.0,264.0 L 73.0,264.0 L 113.0,260.0 L 133.0,256.0 L 185.0,239.0 L 274.0,196.0 L 309.0,184.0 L 347.0,177.0 L 389.0,177.0 L 435.0,182.0 L 445.0,179.0 Z" fill="url(#g)" fill-rule="evenodd"/>
</svg>
